<?xml version="1.0" encoding="UTF-8"?><svg xmlns="http://www.w3.org/2000/svg" xmlns:xlink="http://www.w3.org/1999/xlink" fill-opacity="1" color-rendering="auto" color-interpolation="auto" text-rendering="auto" stroke="black" stroke-linecap="square" width="732" stroke-miterlimit="10" shape-rendering="auto" stroke-opacity="1" fill="black" stroke-dasharray="none" font-weight="normal" stroke-width="1" height="204" font-family="'Dialog'" font-style="normal" stroke-linejoin="miter" font-size="12px" stroke-dashoffset="0" image-rendering="auto">
  <!--Generated by ySVG 2.5-->
  <defs id="genericDefs"/>
  <g>
    <defs id="defs1">
      <clipPath clipPathUnits="userSpaceOnUse" id="clipPath1">
        <path d="M0 0 L732 0 L732 204 L0 204 L0 0 Z"/>
      </clipPath>
      <clipPath clipPathUnits="userSpaceOnUse" id="clipPath2">
        <path d="M537 436 L903 436 L903 538 L537 538 L537 436 Z"/>
      </clipPath>
      <clipPath clipPathUnits="userSpaceOnUse" id="clipPath3">
        <path d="M-3.9576 -11.0066 L362.0424 -11.0066 L362.0424 90.9934 L-3.9576 90.9934 L-3.9576 -11.0066 Z"/>
      </clipPath>
      <clipPath clipPathUnits="userSpaceOnUse" id="clipPath4">
        <path d="M-1241.2344 -108.3679 L1803.641 -108.3679 L1803.641 738.2431 L-1241.2344 738.2431 L-1241.2344 -108.3679 Z"/>
      </clipPath>
      <clipPath clipPathUnits="userSpaceOnUse" id="clipPath5">
        <path d="M-295.0573 -25.7699 L428.9907 -25.7699 L428.9907 175.5477 L-295.0573 175.5477 L-295.0573 -25.7699 Z"/>
      </clipPath>
      <clipPath clipPathUnits="userSpaceOnUse" id="clipPath6">
        <path d="M-2592.603 -103.643 L579.5642 -103.643 L579.5642 780.4036 L-2592.603 780.4036 L-2592.603 -103.643 Z"/>
      </clipPath>
    </defs>
    <g fill="white" text-rendering="geometricPrecision" shape-rendering="geometricPrecision" transform="scale(2,2) translate(-537,-436)" stroke="white">
      <rect x="537" width="366" height="102" y="436" clip-path="url(#clipPath2)" stroke="none"/>
    </g>
    <g text-rendering="geometricPrecision" shape-rendering="geometricPrecision" transform="matrix(2,0,0,2,7.9152,22.0131)">
      <g clip-path="url(#clipPath3)">
        <svg xml:space="preserve" opacity="1" writing-mode="lr-tb" stop-color="rgb(0, 0, 0)" shape-rendering="auto" glyph-orientation-horizontal="0deg" color-profile="auto" lighting-color="rgb(255, 255, 255)" color="rgb(0, 0, 0)" font-weight="400" alignment-baseline="auto" font-style="normal" version="1.1" color-interpolation-filters="linearrgb" text-anchor="start" stroke-linecap="butt" color-interpolation="srgb" font-variant="normal" word-spacing="normal" fill-opacity="1" text-rendering="auto" clip-path="none" text-decoration="none" letter-spacing="normal" viewBox="0 0 57 65" glyph-orientation-vertical="auto" display="inline" font-size-adjust="none" overflow="visible" fill="rgb(0, 0, 0)" font-stretch="normal" stroke-dasharray="none" id="svg1.Ebene_1" stroke-miterlimit="4" stop-opacity="1" color-rendering="auto" font-size="12" pointer-events="visiblepainted" mask="none" direction="ltr" baseline-shift="baseline" enable-background="new 0 0 57 65" fill-rule="nonzero" image-rendering="auto" stroke-dashoffset="0" width="57px" marker-end="none" clip="auto" cursor="auto" stroke="none" filter="none" visibility="visible" kerning="auto" stroke-width="1" font-family="&quot;Arial&quot;,&quot;Helvetica&quot;,sans-serif" flood-opacity="1" clip-rule="nonzero" src="none" height="65px" unicode-bidi="normal" stroke-linejoin="miter" stroke-opacity="1" flood-color="rgb(0, 0, 0)" dominant-baseline="auto" marker-start="none" x="0px" marker-mid="none" y="0px">
<g>
	
		<linearGradient gradientTransform="matrix(1 0 0 1 0.0801 -771.6914)" x1="26.5796" x2="27.8207" gradientUnits="userSpaceOnUse" y1="796.6533" y2="826.4517" id="svg1.SVGID_1_">
		<stop offset="0.2711" style="stop-color:#FFAB4F"/>
		<stop offset="1" style="stop-color:#FFD28F"/>
	</linearGradient>
	<path fill="url(#svg1.SVGID_1_)" d="M49.529,52.225c-4.396-4.396-10.951-5.884-12.063-6.109   V38.8H19.278c0,0,0.038,6.903,0,6.868c0,0-6.874,0.997-12.308,6.432C1.378,57.691,0.5,63.77,0.5,63.77   c0,1.937,1.575,3.492,3.523,3.492h48.51c1.947,0,3.521-1.558,3.521-3.492C56.055,63.768,54.211,56.906,49.529,52.225z" stroke-miterlimit="10" stroke="#ED9135"/>
	<path fill="#ECECEC" id="svg1.body_9_" d="M0.5,63.768c0,1.938,1.575,3.494,3.523,3.494h48.51   c1.947,0,3.521-1.559,3.521-3.494c0,0-1.844-6.861-6.525-11.543c-4.815-4.814-11.244-6.146-11.244-6.146   c-1.771,1.655-5.61,3.802-10.063,3.802c-4.453,0-8.292-2.146-10.063-3.802c0,0-5.755,0.586-11.189,6.021   C1.378,57.689,0.5,63.768,0.5,63.768z" stroke-miterlimit="10" stroke="#9B9B9B"/>
	<path fill="#2068A3" d="M28.106,34.486c-8.112,0-12.688,4.313-12.688,10.438c0,7.422,12.688,10.438,12.688,10.438   s14.688-3.016,14.688-10.438C42.793,39.75,36.215,34.486,28.106,34.486z M26.288,54.051c0,0-7.135-2.093-8.805-7.201   c-0.222-0.682,0.147-1.156,0.795-1.522V38.8h20.188v6.663c0.235,0.352,1.109,0.737,1.229,1.387   C40.445,50.917,26.288,54.051,26.288,54.051z" stroke="#2068A3"/>
	<path fill="#5491CF" d="M49.529,52.225c-2.239-2.24-5.041-3.724-7.396-4.67   c-2.854,5.51-14.027,7.807-14.027,7.807s-10.472-2.489-12.387-8.514c-2.439,0.771-5.787,2.287-8.749,5.25   c-5.592,5.592-6.47,11.67-6.47,11.67c0,1.937,1.575,3.492,3.523,3.492h48.51c1.948,0,3.522-1.558,3.522-3.492   C56.055,63.768,54.211,56.906,49.529,52.225z" stroke-miterlimit="10" stroke="#2068A3"/>
	<path fill="#5491CF" d="M13.404,45.173c1.15-1.81,2.039-3.832,3.332-5.397c-0.514,1.027-1.669,4.084-1.669,5.148   c0,5.186,10.366,9.079,14.688,10.438c-3.472,1.627-9.134-1.498-11.34-2.365c-3.601-1.419-4.071-3.063-5.89-4.857   C12.523,48.135,12.878,46,13.404,45.173z" stroke="#2068A3"/>
	<path fill="#5491CF" d="M45.777,44.924c-1.317-1.568-5.11-9.424-6.604-6.617c0.516,1.025,3.617,3.693,3.617,6.617   c0,5.186-10.266,8.576-16.693,9.145c1.429,4.934,11.367,1.293,13.804-0.316c3.563-2.354,4.557-5.133,7.852-3.705   C47.754,50.045,48.006,47.574,45.777,44.924z" stroke="#2068A3"/>
	<path fill="none" d="M30.777,55.167c0.357,0.836-0.153,1.983-0.352,2.813   c-0.256,1.084-0.072,2.104,0.102,3.186c0.164,1.02,0.156,2.107,0.25,3.167c0.082,0.916,0.482,1.849,0.357,2.75" stroke="#2068A3" stroke-linecap="round"/>
	<path fill="none" d="M23.695,54.417c-0.508,0.584-0.476,2.209-0.398,3   c0.116,1.183,0.456,2.099,0.333,3.333c-0.192,1.943,0.154,4.479-0.436,6.333" stroke="#2068A3" stroke-linecap="round"/>
	
		<radialGradient gradientTransform="matrix(1 0 0 1 0.0801 -771.6914)" gradientUnits="userSpaceOnUse" r="23.4236" cx="27.8228" id="svg1.face_x5F_white_1_" cy="798.418" fx="23.2533" fy="795.9283">
		<stop offset="0" style="stop-color:#FFD28F"/>
		<stop offset="1" style="stop-color:#FFAB4F"/>
	</radialGradient>
	<path fill="url(#svg1.face_x5F_white_1_)" id="svg1.face_x5F_white_3_" d="M43.676,24.357   c0.086,10.2-6.738,18.52-15.245,18.586c-8.504,0.068-15.468-8.146-15.554-18.344C12.794,14.4,19.618,6.079,28.123,6.012   C36.627,5.945,43.59,14.158,43.676,24.357z" stroke-miterlimit="10" stroke="#ED9135"/>
	
		<linearGradient gradientTransform="matrix(0.275 0 0 -0.2733 -589.5001 -1032.9376)" x1="2236.3486" x2="2259.9785" gradientUnits="userSpaceOnUse" y1="-3813.3281" y2="-3906.7793" id="svg1.face_highlight_2_">
		<stop offset="0" style="stop-color:#FFFFFF;stop-opacity:0.72"/>
		<stop offset="1" style="stop-color:#FFFFFF;stop-opacity:0.2067"/>
	</linearGradient>
	<path fill="url(#svg1.face_highlight_2_)" id="svg1.face_highlight_1_" d="M27.958,7.333c-6.035,0.047-10.747,4.493-12.787,10.386   c-0.664,1.919-0.294,4.043,0.98,5.629c2.73,3.398,5.729,6.283,9.461,8.088c3.137,1.518,7.535,2.384,11.893,1.247   c2.274-0.592,3.988-2.459,4.375-4.766c0.181-1.094,0.293-2.289,0.283-3.553C42.083,14.952,36.271,7.268,27.958,7.333z"/>
	<path fill="#FFB380" d="M32.215,10.938c0,0,5.688,2.75,7.688,8.125c2.104,5.652,4.123,8.232,4.188,8   c1.875-6.794,1.063-21.438-10.17-21.587C13.467-2.187,8.342,17.438,10.029,25.126c1.078,4.911,2.234,6.686,3.938,8.08   C13.966,33.205,15.028,18.563,32.215,10.938z" stroke="#953606"/>
	<path fill="#CC9869" d="M32.215,10.938   c0,0,5.688,2.75,7.688,8.125c2.104,5.652,4.123,8.232,4.188,8c1.875-6.794,1.063-21.438-10.17-21.587   C13.467-2.187,8.342,17.438,10.029,25.126c1.078,4.911,2.234,6.686,3.938,8.08C13.966,33.205,15.028,18.563,32.215,10.938z" stroke="#99724F" stroke-linecap="round" stroke-linejoin="round"/>
</g>
</svg>
      </g>
    </g>
    <g text-rendering="geometricPrecision" shape-rendering="geometricPrecision" transform="matrix(0.2404,0,0,0.241,298.3976,26.1124)">
      <g clip-path="url(#clipPath4)">
        <svg xml:space="preserve" opacity="1" writing-mode="lr-tb" stop-color="rgb(0, 0, 0)" shape-rendering="auto" glyph-orientation-horizontal="0deg" color-profile="auto" lighting-color="rgb(255, 255, 255)" color="rgb(0, 0, 0)" font-weight="400" alignment-baseline="auto" font-style="normal" version="1.1" color-interpolation-filters="linearrgb" text-anchor="start" stroke-linecap="butt" color-interpolation="srgb" font-variant="normal" word-spacing="normal" fill-opacity="1" text-rendering="auto" clip-path="none" text-decoration="none" letter-spacing="normal" viewBox="0 0 121.946 121.946" glyph-orientation-vertical="auto" display="inline" font-size-adjust="none" overflow="visible" fill="rgb(0, 0, 0)" font-stretch="normal" stroke-dasharray="none" id="svg2.Capa_1" stroke-miterlimit="4" stop-opacity="1" color-rendering="auto" font-size="12" pointer-events="visiblepainted" mask="none" direction="ltr" baseline-shift="baseline" enable-background="new 0 0 121.946 121.946" fill-rule="nonzero" image-rendering="auto" stroke-dashoffset="0" style="enable-background:new 0 0 121.946 121.946;" width="512px" marker-end="none" clip="auto" cursor="auto" stroke="none" filter="none" visibility="visible" kerning="auto" stroke-width="1" font-family="&quot;Arial&quot;,&quot;Helvetica&quot;,sans-serif" flood-opacity="1" clip-rule="nonzero" src="none" height="512px" unicode-bidi="normal" stroke-linejoin="miter" stroke-opacity="1" flood-color="rgb(0, 0, 0)" dominant-baseline="auto" marker-start="none" x="0px" marker-mid="none" y="0px">
<g>
	<g>
		<path fill="#2d567a" d="M50.077,98.919l-2.78-1.024c0.219-2.027,0.147-4.093-0.234-6.146l2.684-1.237c1.677-0.771,2.412-2.765,1.639-4.441    l-1.567-3.4c-0.772-1.676-2.763-2.413-4.437-1.641l-2.688,1.239c-1.313-1.627-2.837-3.023-4.519-4.176l1.026-2.775    c0.638-1.731-0.25-3.661-1.98-4.301l-3.515-1.298c-1.677-0.617-3.68,0.305-4.298,1.979l-1.025,2.778    c-2.025-0.216-4.091-0.146-6.146,0.233L21,72.024c-0.772-1.676-2.765-2.412-4.439-1.641l-3.403,1.565    c-1.676,0.773-2.41,2.768-1.64,4.441l1.237,2.684c-1.624,1.315-3.023,2.839-4.174,4.523l-2.774-1.026    c-1.675-0.624-3.681,0.3-4.302,1.979l-1.297,3.515c-0.309,0.84-0.273,1.749,0.1,2.561c0.376,0.812,1.044,1.43,1.88,1.735    l2.78,1.028c-0.22,2.024-0.148,4.094,0.234,6.146l-2.687,1.237c-1.676,0.771-2.41,2.763-1.639,4.438l1.568,3.404    c0.772,1.675,2.763,2.411,4.438,1.638l2.687-1.235c1.313,1.626,2.836,3.021,4.52,4.174l-1.026,2.777    c-0.312,0.838-0.276,1.745,0.1,2.559c0.371,0.812,1.041,1.432,1.879,1.743l3.515,1.296c0.836,0.31,1.747,0.273,2.559-0.099    c0.813-0.375,1.43-1.043,1.738-1.882l1.027-2.779c2.025,0.22,4.093,0.147,6.147-0.231l1.235,2.685    c0.772,1.674,2.766,2.41,4.44,1.638l3.402-1.566c1.678-0.771,2.413-2.763,1.639-4.439l-1.237-2.685    c1.626-1.314,3.024-2.838,4.173-4.52l2.778,1.027c0.841,0.311,1.75,0.272,2.563-0.103c0.81-0.374,1.426-1.042,1.736-1.879    l1.297-3.515C52.695,101.488,51.807,99.56,50.077,98.919z M31.669,107.662c-1.754,0.809-3.615,1.216-5.533,1.216    c-5.152,0-9.872-3.022-12.025-7.697c-3.052-6.631-0.144-14.507,6.483-17.559c1.753-0.809,3.614-1.217,5.529-1.217    c5.151,0,9.875,3.021,12.029,7.697C41.204,96.733,38.295,104.609,31.669,107.662z"/>
		<path fill="#2d567a" d="M83.179,108.5l-1.547-0.569c0.123-1.129,0.082-2.28-0.131-3.423l1.494-0.689c0.935-0.428,1.344-1.538,0.913-2.473    l-0.872-1.894c-0.432-0.935-1.539-1.346-2.471-0.914l-1.497,0.689c-0.73-0.905-1.58-1.685-2.515-2.325l0.57-1.546    c0.355-0.964-0.14-2.037-1.103-2.396l-1.958-0.722c-0.934-0.346-2.048,0.168-2.394,1.102l-0.571,1.548    c-1.126-0.121-2.278-0.081-3.421,0.13l-0.688-1.493c-0.432-0.934-1.541-1.345-2.474-0.914l-1.895,0.873    c-0.934,0.432-1.342,1.54-0.913,2.473l0.689,1.495c-0.905,0.732-1.684,1.581-2.326,2.519l-1.544-0.57    c-0.931-0.347-2.049,0.165-2.394,1.101l-0.724,1.958c-0.171,0.468-0.15,0.975,0.055,1.427c0.21,0.45,0.583,0.795,1.049,0.966    l1.547,0.572c-0.123,1.129-0.083,2.278,0.13,3.423l-1.495,0.688c-0.934,0.431-1.343,1.538-0.913,2.472l0.874,1.896    c0.429,0.932,1.538,1.343,2.471,0.913l1.495-0.688c0.731,0.905,1.581,1.683,2.519,2.323l-0.571,1.545    c-0.174,0.468-0.154,0.975,0.055,1.427c0.208,0.451,0.579,0.797,1.048,0.971l1.956,0.722c0.467,0.172,0.972,0.152,1.425-0.056    s0.797-0.58,0.968-1.046l0.571-1.55c1.129,0.123,2.278,0.084,3.423-0.129l0.688,1.495c0.43,0.932,1.539,1.343,2.471,0.911    l1.896-0.872c0.934-0.432,1.342-1.538,0.912-2.472l-0.688-1.496c0.904-0.731,1.684-1.578,2.323-2.516l1.547,0.57    c0.468,0.175,0.975,0.152,1.428-0.056c0.449-0.207,0.795-0.581,0.967-1.047l0.722-1.957    C84.636,109.932,84.141,108.856,83.179,108.5z M72.929,113.37c-0.977,0.448-2.012,0.677-3.08,0.677    c-2.868,0-5.497-1.684-6.696-4.287c-1.7-3.69-0.082-8.077,3.61-9.775c0.976-0.45,2.012-0.677,3.079-0.677    c2.867,0,5.496,1.682,6.696,4.285C78.236,107.284,76.618,111.668,72.929,113.37z"/>
		<path fill="#2d567a" d="M118.269,49.597l-4.673-1.725c0.369-3.407,0.248-6.882-0.393-10.337l4.514-2.077c2.816-1.294,4.052-4.647,2.754-7.468    l-2.634-5.718c-1.298-2.819-4.646-4.059-7.461-2.759l-4.519,2.084c-2.208-2.735-4.771-5.082-7.596-7.02l1.723-4.668    c1.072-2.911-0.418-6.155-3.328-7.229l-5.909-2.186c-2.818-1.036-6.186,0.515-7.228,3.33l-1.724,4.673    c-3.405-0.366-6.881-0.245-10.333,0.391l-2.08-4.51c-1.298-2.819-4.646-4.056-7.465-2.758l-5.72,2.634    c-2.818,1.299-4.055,4.65-2.759,7.466l2.083,4.513c-2.731,2.211-5.083,4.773-7.02,7.603l-4.665-1.724    c-2.815-1.049-6.188,0.504-7.23,3.324l-2.181,5.912c-0.521,1.41-0.46,2.938,0.166,4.304c0.634,1.364,1.758,2.403,3.163,2.917    l4.673,1.73c-0.371,3.403-0.25,6.882,0.392,10.335l-4.514,2.078c-2.819,1.299-4.053,4.645-2.756,7.461l2.635,5.724    c1.298,2.813,4.646,4.054,7.463,2.755l4.515-2.08c2.208,2.735,4.771,5.083,7.602,7.019l-1.726,4.669    c-0.524,1.407-0.463,2.936,0.167,4.303c0.626,1.364,1.751,2.406,3.159,2.929l5.909,2.179c1.409,0.521,2.938,0.461,4.303-0.164    c1.367-0.63,2.404-1.754,2.922-3.163l1.729-4.675c3.404,0.371,6.879,0.25,10.336-0.389l2.076,4.512    c1.298,2.814,4.648,4.056,7.466,2.755l5.72-2.634c2.821-1.3,4.054-4.646,2.755-7.464l-2.079-4.513    c2.732-2.213,5.084-4.771,7.017-7.601l4.672,1.729c1.411,0.521,2.94,0.459,4.307-0.171c1.362-0.628,2.398-1.753,2.919-3.159    l2.184-5.911C122.671,53.914,121.178,50.67,118.269,49.597z M87.322,64.294c-2.95,1.357-6.078,2.046-9.301,2.046    c-8.663,0-16.597-5.082-20.22-12.945C52.669,42.249,57.559,29.007,68.7,23.876c2.947-1.359,6.077-2.045,9.297-2.045    c8.662,0,16.601,5.079,20.224,12.94C103.351,45.92,98.463,59.163,87.322,64.294z"/>
	</g>
</g>
<g>
</g>
<g>
</g>
<g>
</g>
<g>
</g>
<g>
</g>
<g>
</g>
<g>
</g>
<g>
</g>
<g>
</g>
<g>
</g>
<g>
</g>
<g>
</g>
<g>
</g>
<g>
</g>
<g>
</g>
</svg>
      </g>
    </g>
    <g text-rendering="geometricPrecision" shape-rendering="geometricPrecision" transform="matrix(1.011,0,0,1.0133,298.2979,26.1133)">
      <g clip-path="url(#clipPath5)">
        <svg xml:space="preserve" opacity="1" writing-mode="lr-tb" stop-color="rgb(0, 0, 0)" shape-rendering="auto" glyph-orientation-horizontal="0deg" color-profile="auto" lighting-color="rgb(255, 255, 255)" color="rgb(0, 0, 0)" font-weight="400" alignment-baseline="auto" font-style="normal" version="1.1" color-interpolation-filters="linearrgb" text-anchor="start" stroke-linecap="butt" color-interpolation="srgb" font-variant="normal" word-spacing="normal" fill-opacity="1" text-rendering="auto" clip-path="none" text-decoration="none" letter-spacing="normal" viewBox="0 0 121.946 121.946" glyph-orientation-vertical="auto" display="inline" font-size-adjust="none" overflow="visible" fill="rgb(0, 0, 0)" font-stretch="normal" stroke-dasharray="none" id="svg3.Capa_1" stroke-miterlimit="4" stop-opacity="1" color-rendering="auto" font-size="12" pointer-events="visiblepainted" mask="none" direction="ltr" baseline-shift="baseline" enable-background="new 0 0 121.946 121.946" fill-rule="nonzero" image-rendering="auto" stroke-dashoffset="0" style="enable-background:new 0 0 121.946 121.946;" width="121.946px" marker-end="none" clip="auto" cursor="auto" stroke="none" filter="none" visibility="visible" kerning="auto" stroke-width="1" font-family="&quot;Arial&quot;,&quot;Helvetica&quot;,sans-serif" flood-opacity="1" clip-rule="nonzero" src="none" height="121.946px" unicode-bidi="normal" stroke-linejoin="miter" stroke-opacity="1" flood-color="rgb(0, 0, 0)" dominant-baseline="auto" marker-start="none" x="0px" marker-mid="none" y="0px">
<g>
	<g>
		<path d="M50.077,98.919l-2.78-1.024c0.219-2.027,0.147-4.093-0.234-6.146l2.684-1.237c1.677-0.771,2.412-2.765,1.639-4.441    l-1.567-3.4c-0.772-1.676-2.763-2.413-4.437-1.641l-2.688,1.239c-1.313-1.627-2.837-3.023-4.519-4.176l1.026-2.775    c0.638-1.731-0.25-3.661-1.98-4.301l-3.515-1.298c-1.677-0.617-3.68,0.305-4.298,1.979l-1.025,2.778    c-2.025-0.216-4.091-0.146-6.146,0.233L21,72.024c-0.772-1.676-2.765-2.412-4.439-1.641l-3.403,1.565    c-1.676,0.773-2.41,2.768-1.64,4.441l1.237,2.684c-1.624,1.315-3.023,2.839-4.174,4.523l-2.774-1.026    c-1.675-0.624-3.681,0.3-4.302,1.979l-1.297,3.515c-0.309,0.84-0.273,1.749,0.1,2.561c0.376,0.812,1.044,1.43,1.88,1.735    l2.78,1.028c-0.22,2.024-0.148,4.094,0.234,6.146l-2.687,1.237c-1.676,0.771-2.41,2.763-1.639,4.438l1.568,3.404    c0.772,1.675,2.763,2.411,4.438,1.638l2.687-1.235c1.313,1.626,2.836,3.021,4.52,4.174l-1.026,2.777    c-0.312,0.838-0.276,1.745,0.1,2.559c0.371,0.812,1.041,1.432,1.879,1.743l3.515,1.296c0.836,0.31,1.747,0.273,2.559-0.099    c0.813-0.375,1.43-1.043,1.738-1.882l1.027-2.779c2.025,0.22,4.093,0.147,6.147-0.231l1.235,2.685    c0.772,1.674,2.766,2.41,4.44,1.638l3.402-1.566c1.678-0.771,2.413-2.763,1.639-4.439l-1.237-2.685    c1.626-1.314,3.024-2.838,4.173-4.52l2.778,1.027c0.841,0.311,1.75,0.272,2.563-0.103c0.81-0.374,1.426-1.042,1.736-1.879    l1.297-3.515C52.695,101.488,51.807,99.56,50.077,98.919z M31.669,107.662c-1.754,0.809-3.615,1.216-5.533,1.216    c-5.152,0-9.872-3.022-12.025-7.697c-3.052-6.631-0.144-14.507,6.483-17.559c1.753-0.809,3.614-1.217,5.529-1.217    c5.151,0,9.875,3.021,12.029,7.697C41.204,96.733,38.295,104.609,31.669,107.662z"/>
		<path d="M83.179,108.5l-1.547-0.569c0.123-1.129,0.082-2.28-0.131-3.423l1.494-0.689c0.935-0.428,1.344-1.538,0.913-2.473    l-0.872-1.894c-0.432-0.935-1.539-1.346-2.471-0.914l-1.497,0.689c-0.73-0.905-1.58-1.685-2.515-2.325l0.57-1.546    c0.355-0.964-0.14-2.037-1.103-2.396l-1.958-0.722c-0.934-0.346-2.048,0.168-2.394,1.102l-0.571,1.548    c-1.126-0.121-2.278-0.081-3.421,0.13l-0.688-1.493c-0.432-0.934-1.541-1.345-2.474-0.914l-1.895,0.873    c-0.934,0.432-1.342,1.54-0.913,2.473l0.689,1.495c-0.905,0.732-1.684,1.581-2.326,2.519l-1.544-0.57    c-0.931-0.347-2.049,0.165-2.394,1.101l-0.724,1.958c-0.171,0.468-0.15,0.975,0.055,1.427c0.21,0.45,0.583,0.795,1.049,0.966    l1.547,0.572c-0.123,1.129-0.083,2.278,0.13,3.423l-1.495,0.688c-0.934,0.431-1.343,1.538-0.913,2.472l0.874,1.896    c0.429,0.932,1.538,1.343,2.471,0.913l1.495-0.688c0.731,0.905,1.581,1.683,2.519,2.323l-0.571,1.545    c-0.174,0.468-0.154,0.975,0.055,1.427c0.208,0.451,0.579,0.797,1.048,0.971l1.956,0.722c0.467,0.172,0.972,0.152,1.425-0.056    s0.797-0.58,0.968-1.046l0.571-1.55c1.129,0.123,2.278,0.084,3.423-0.129l0.688,1.495c0.43,0.932,1.539,1.343,2.471,0.911    l1.896-0.872c0.934-0.432,1.342-1.538,0.912-2.472l-0.688-1.496c0.904-0.731,1.684-1.578,2.323-2.516l1.547,0.57    c0.468,0.175,0.975,0.152,1.428-0.056c0.449-0.207,0.795-0.581,0.967-1.047l0.722-1.957    C84.636,109.932,84.141,108.856,83.179,108.5z M72.929,113.37c-0.977,0.448-2.012,0.677-3.08,0.677    c-2.868,0-5.497-1.684-6.696-4.287c-1.7-3.69-0.082-8.077,3.61-9.775c0.976-0.45,2.012-0.677,3.079-0.677    c2.867,0,5.496,1.682,6.696,4.285C78.236,107.284,76.618,111.668,72.929,113.37z"/>
		<path d="M118.269,49.597l-4.673-1.725c0.369-3.407,0.248-6.882-0.393-10.337l4.514-2.077c2.816-1.294,4.052-4.647,2.754-7.468    l-2.634-5.718c-1.298-2.819-4.646-4.059-7.461-2.759l-4.519,2.084c-2.208-2.735-4.771-5.082-7.596-7.02l1.723-4.668    c1.072-2.911-0.418-6.155-3.328-7.229l-5.909-2.186c-2.818-1.036-6.186,0.515-7.228,3.33l-1.724,4.673    c-3.405-0.366-6.881-0.245-10.333,0.391l-2.08-4.51c-1.298-2.819-4.646-4.056-7.465-2.758l-5.72,2.634    c-2.818,1.299-4.055,4.65-2.759,7.466l2.083,4.513c-2.731,2.211-5.083,4.773-7.02,7.603l-4.665-1.724    c-2.815-1.049-6.188,0.504-7.23,3.324l-2.181,5.912c-0.521,1.41-0.46,2.938,0.166,4.304c0.634,1.364,1.758,2.403,3.163,2.917    l4.673,1.73c-0.371,3.403-0.25,6.882,0.392,10.335l-4.514,2.078c-2.819,1.299-4.053,4.645-2.756,7.461l2.635,5.724    c1.298,2.813,4.646,4.054,7.463,2.755l4.515-2.08c2.208,2.735,4.771,5.083,7.602,7.019l-1.726,4.669    c-0.524,1.407-0.463,2.936,0.167,4.303c0.626,1.364,1.751,2.406,3.159,2.929l5.909,2.179c1.409,0.521,2.938,0.461,4.303-0.164    c1.367-0.63,2.404-1.754,2.922-3.163l1.729-4.675c3.404,0.371,6.879,0.25,10.336-0.389l2.076,4.512    c1.298,2.814,4.648,4.056,7.466,2.755l5.72-2.634c2.821-1.3,4.054-4.646,2.755-7.464l-2.079-4.513    c2.732-2.213,5.084-4.771,7.017-7.601l4.672,1.729c1.411,0.521,2.94,0.459,4.307-0.171c1.362-0.628,2.398-1.753,2.919-3.159    l2.184-5.911C122.671,53.914,121.178,50.67,118.269,49.597z M87.322,64.294c-2.95,1.357-6.078,2.046-9.301,2.046    c-8.663,0-16.597-5.082-20.22-12.945C52.669,42.249,57.559,29.007,68.7,23.876c2.947-1.359,6.077-2.045,9.297-2.045    c8.662,0,16.601,5.079,20.224,12.94C103.351,45.92,98.463,59.163,87.322,64.294z"/>
	</g>
</g>
<g>
</g>
<g>
</g>
<g>
</g>
<g>
</g>
<g>
</g>
<g>
</g>
<g>
</g>
<g>
</g>
<g>
</g>
<g>
</g>
<g>
</g>
<g>
</g>
<g>
</g>
<g>
</g>
<g>
</g>
</svg>
      </g>
    </g>
    <g text-rendering="geometricPrecision" stroke-miterlimit="1.45" shape-rendering="geometricPrecision" font-family="sans-serif" transform="matrix(2,0,0,2,-1074,-872)" stroke-linecap="butt">
      <text x="660.4297" xml:space="preserve" y="528.8705" clip-path="url(#clipPath2)" stroke="none">Maven Release Build</text>
    </g>
    <g text-rendering="geometricPrecision" shape-rendering="geometricPrecision" transform="matrix(0.2308,0,0,0.2308,598.2615,23.9163)">
      <g clip-path="url(#clipPath6)">
        <svg xml:space="preserve" opacity="1" writing-mode="lr-tb" stop-color="rgb(0, 0, 0)" shape-rendering="auto" glyph-orientation-horizontal="0deg" color-profile="auto" lighting-color="rgb(255, 255, 255)" color="rgb(0, 0, 0)" font-weight="400" alignment-baseline="auto" font-style="normal" version="1.1" color-interpolation-filters="linearrgb" text-anchor="start" stroke-linecap="butt" color-interpolation="srgb" font-variant="normal" word-spacing="normal" fill-opacity="1" text-rendering="auto" clip-path="none" text-decoration="none" letter-spacing="normal" viewBox="0 0 551.852 551.852" glyph-orientation-vertical="auto" display="inline" font-size-adjust="none" overflow="visible" fill="rgb(0, 0, 0)" font-stretch="normal" stroke-dasharray="none" id="svg4.Capa_1" stroke-miterlimit="4" stop-opacity="1" color-rendering="auto" font-size="12" pointer-events="visiblepainted" mask="none" direction="ltr" baseline-shift="baseline" enable-background="new 0 0 551.852 551.852" fill-rule="nonzero" image-rendering="auto" stroke-dashoffset="0" style="enable-background:new 0 0 551.852 551.852;" width="551.852px" marker-end="none" clip="auto" cursor="auto" stroke="none" filter="none" visibility="visible" kerning="auto" stroke-width="1" font-family="&quot;Arial&quot;,&quot;Helvetica&quot;,sans-serif" flood-opacity="1" clip-rule="nonzero" src="none" height="551.852px" unicode-bidi="normal" stroke-linejoin="miter" stroke-opacity="1" flood-color="rgb(0, 0, 0)" dominant-baseline="auto" marker-start="none" x="0px" marker-mid="none" y="0px">
<g>
	<path d="M545.933,106.575l0.377-0.999L276.049,0L6.228,106.671l-0.881-0.35v0.684l-0.038,0.021l0.038,0.115v338.651   l270.579,106.059l270.617-106.064V106.326L545.933,106.575z M275.797,20.755l91.666,32.829L117.578,150.6l-84.647-33.39   L275.797,20.755z M266.281,527.927L164.94,487.013l-50.859-19.107l-89.396-35.267V134.737l88.499,34.909v74.49l7.887-2.202   l5.33,7.324l7.421-1.732l7.187,7.592l6.272-2.161l10.125,10.041v-75.911l7.877,3.11l100.999,39.834V527.927L266.281,527.927z    M275.948,213.077l-98.808-38.983L420.832,75.33l100.504,40.944L275.948,213.077z M527.218,432.639l-241.612,95.288V230.032   l241.589-95.301v297.901L527.218,432.639L527.218,432.639z"/>
</g>
<g>
</g>
<g>
</g>
<g>
</g>
<g>
</g>
<g>
</g>
<g>
</g>
<g>
</g>
<g>
</g>
<g>
</g>
<g>
</g>
<g>
</g>
<g>
</g>
<g>
</g>
<g>
</g>
<g>
</g>
</svg>
      </g>
    </g>
    <g stroke-linecap="butt" transform="matrix(2,0,0,2,-1074,-872)" text-rendering="geometricPrecision" font-family="sans-serif" shape-rendering="geometricPrecision" font-weight="bold" stroke-miterlimit="1.45">
      <text x="854.6219" xml:space="preserve" y="529.6944" clip-path="url(#clipPath2)" stroke="none">8.2.0</text>
    </g>
    <g text-rendering="geometricPrecision" stroke-miterlimit="1.45" shape-rendering="geometricPrecision" transform="matrix(2,0,0,2,-1074,-872)" stroke-linecap="butt">
      <path fill="none" d="M584.6366 479.7941 L695.4454 479.7941" clip-path="url(#clipPath2)"/>
      <path d="M703.4454 479.7941 L691.4454 474.7941 L694.4454 479.7941 L691.4454 484.7941 Z" clip-path="url(#clipPath2)" stroke="none"/>
    </g>
    <g stroke-linecap="butt" font-size="13px" transform="matrix(2,0,0,2,-1074,-872)" fill="rgb(45,86,122)" text-rendering="geometricPrecision" font-family="sans-serif" shape-rendering="geometricPrecision" stroke="rgb(45,86,122)" font-weight="bold" stroke-miterlimit="1.45">
      <text x="587.1649" xml:space="preserve" y="454.9008" clip-path="url(#clipPath2)" stroke="none">"Build 8.2.0 now!"</text>
    </g>
    <g text-rendering="geometricPrecision" stroke-miterlimit="1.45" shape-rendering="geometricPrecision" transform="matrix(2,0,0,2,-1074,-872)" stroke-linecap="butt">
      <path fill="none" d="M747.5093 479.7941 L792.5473 479.7941 L828.7144 479.7941" clip-path="url(#clipPath2)"/>
      <path d="M836.7144 479.7941 L824.7144 474.7941 L827.7144 479.7941 L824.7144 484.7941 Z" clip-path="url(#clipPath2)" stroke="none"/>
    </g>
  </g>
</svg>
