<?xml version="1.0" encoding="UTF-8" standalone="no"?>
<svg
   xmlns:dc="http://purl.org/dc/elements/1.1/"
   xmlns:cc="http://creativecommons.org/ns#"
   xmlns:rdf="http://www.w3.org/1999/02/22-rdf-syntax-ns#"
   xmlns:svg="http://www.w3.org/2000/svg"
   xmlns="http://www.w3.org/2000/svg"
   xmlns:sodipodi="http://sodipodi.sourceforge.net/DTD/sodipodi-0.dtd"
   xmlns:inkscape="http://www.inkscape.org/namespaces/inkscape"
   version="1.1"
   viewBox="0 0 128 108"
   stroke-miterlimit="10"
   id="svg32"
   sodipodi:docname="logo_esquina.svg"
   inkscape:version="0.92.2 5c3e80d, 2017-08-06"
   width="128"
   height="108"
   style="fill:none;stroke:none;stroke-linecap:square;stroke-miterlimit:10">
  <metadata
     id="metadata38">
    <rdf:RDF>
      <cc:Work
         rdf:about="">
        <dc:format>image/svg+xml</dc:format>
        <dc:type
           rdf:resource="http://purl.org/dc/dcmitype/StillImage" />
        <dc:title></dc:title>
      </cc:Work>
    </rdf:RDF>
  </metadata>
  <defs
     id="defs36" />
  <sodipodi:namedview
     pagecolor="#ffffff"
     bordercolor="#666666"
     borderopacity="1"
     objecttolerance="10"
     gridtolerance="10"
     guidetolerance="10"
     inkscape:pageopacity="0"
     inkscape:pageshadow="2"
     inkscape:window-width="1366"
     inkscape:window-height="744"
     id="namedview34"
     showgrid="false"
     inkscape:zoom="1.8101934"
     inkscape:cx="62.896052"
     inkscape:cy="100.53362"
     inkscape:window-x="1920"
     inkscape:window-y="0"
     inkscape:window-maximized="1"
     inkscape:current-layer="g30" />
  <clipPath
     id="g2e0fb304c6_0_0.0">
    <path
       d="M 0,0 H 1280 V 720 H 0 Z"
       id="path2"
       inkscape:connector-curvature="0"
       style="clip-rule:nonzero" />
  </clipPath>
  <g
     clip-path="url(#g2e0fb304c6_0_0.0)"
     id="g30"
     transform="translate(-620.33898,-302.16949)">
    <path
       d="M 88,38.333332 H 1192 V 177.51443 H 88 Z"
       id="path7"
       inkscape:connector-curvature="0"
       style="fill:#000000;fill-opacity:0;fill-rule:evenodd" />
    <path
       d="M 88,191.66667 H 1192 V 648.48552 H 88 Z"
       id="path9"
       inkscape:connector-curvature="0"
       style="fill:#000000;fill-opacity:0;fill-rule:evenodd" />
    <defs
       id="defs20">
      <linearGradient
         id="g2e0fb304c6_0_0.1"
         gradientUnits="userSpaceOnUse"
         gradientTransform="matrix(12.549092,0,0,12.549092,197.84563,50.987379)"
         spreadMethod="pad"
         x1="30.088682"
         y1="22.177116"
         x2="36.363205"
         y2="33.044964">
        <stop
           offset="0.0"
           stop-color="#443548"
           id="stop11" />
        <stop
           offset="0.35"
           stop-color="#7d002e"
           id="stop13" />
        <stop
           offset="0.69"
           stop-color="#c51f30"
           id="stop15" />
        <stop
           offset="1.0"
           stop-color="#f04e36"
           id="stop17" />
      </linearGradient>
    </defs>
    <path
       d="m 635.02753,410.65123 c -1.00021,0 -1.99933,-0.75101 -2.24939,-1.75201 -9.99454,-38.28583 -9.99454,-38.28583 -9.99454,-38.28583 -0.99914,-3.75403 0,-7.50717 2.74842,-10.26016 54.72262,-55.05126 54.72262,-55.05126 54.72262,-55.05126 2.74842,-2.753 6.746,-3.75311 10.49463,-2.753 56.97095,15.26431 56.97095,15.26431 56.97095,15.26431 0.99914,0.25094 1.74927,1.25195 1.74927,2.25207 0,88.83386 0,88.83386 0,88.83386 0,1.00101 -0.75013,1.75202 -1.74927,1.75202 z"
       id="path22"
       style="fill:url(#g2e0fb304c6_0_0.1);fill-rule:evenodd"
       inkscape:connector-curvature="0" />
    <path
       d="m 661.26299,379.01108 c 0,-4.07834 0,-4.07834 0,-4.07834 11.41791,0 11.41791,0 11.41791,0 1.52243,0 2.79098,0 3.29852,-0.50986 0.7612,-0.25485 1.01486,-1.01956 1.01486,-2.03927 0,-1.01953 -0.25366,-1.78424 -1.26873,-2.29392 -0.50733,-0.255 -1.26856,-0.50985 -2.5373,-0.50985 -5.32824,0 -5.32824,0 -5.32824,0 -2.53733,0 -4.31339,-0.25483 -5.32846,-1.27457 -0.7612,-0.50967 -1.26856,-1.27435 -1.7761,-2.29392 -0.25366,-0.76467 -0.50735,-1.78421 -0.50735,-2.54892 0,-1.78442 0.50735,-3.0588 1.26855,-4.33337 1.0149,-1.27435 2.28363,-2.03906 4.31339,-2.29391 0.7612,0 1.77627,0 3.04483,0 12.17914,0 12.17914,0 12.17914,0 0,3.82333 0,3.82333 0,3.82333 -11.16425,0 -11.16425,0 -11.16425,0 -1.52243,0 -2.53729,0.25482 -3.04465,0.25482 -1.01507,0.25504 -1.52243,1.01975 -1.52243,2.2941 0,1.01974 0.50736,1.78424 1.26856,2.03928 0.76123,0.25482 1.52243,0.50967 2.79117,0.50967 4.82092,0 4.82092,0 4.82092,0 2.02975,0 3.29849,0 4.05972,0.50986 1.77606,0.50985 2.79096,1.27456 3.29849,2.80377 0.50736,1.01971 0.7612,2.03924 0.7612,3.31363 0,1.27456 -0.25384,2.54913 -1.01507,3.56866 -0.7612,1.52939 -2.02976,2.54892 -3.80585,2.80377 -0.7612,0 -2.02994,0.25504 -3.80603,0.25504 z"
       id="path24"
       inkscape:connector-curvature="0"
       style="fill:#ffffff;fill-rule:evenodd" />
    <path
       d="m 690.40183,371.10924 c 8.63077,0 8.63077,0 8.63077,0 0,-9.43121 0,-9.43121 0,-9.43121 z m -5.07675,4.07834 c 0,-1.78424 0,-3.31363 0,-4.84302 12.18448,-13.5094 12.18448,-13.5094 12.18448,-13.5094 6.34591,0 6.34591,0 6.34591,0 0,10.70563 0,14.01926 0,22.17594 -4.82287,0 -4.82287,0 -4.82287,0 0,-3.82352 0,-3.82352 0,-3.82352 z"
       id="path26"
       inkscape:connector-curvature="0"
       style="fill:#ffffff;fill-rule:evenodd" />
    <path
       d="m 706.97277,356.83516 c 13.19403,0 13.19403,0 13.19403,0 1.77606,0 3.29846,0.25485 4.31336,0.5097 3.04486,1.01954 4.56726,3.82349 4.56726,7.90183 0,13.7644 0,13.7644 0,13.7644 -5.07477,0 -5.07477,0 -5.07477,0 0,-14.27426 0,-14.27426 0,-14.27426 0,-1.27438 -0.25366,-2.2941 -1.01489,-2.80377 -0.50751,-0.25503 -1.0149,-0.25503 -2.02979,-0.25503 -8.88061,0 -8.88061,0 -8.88061,0 0,17.33306 0,17.33306 0,17.33306 -5.07459,0 -5.07459,0 -5.07459,0 0,-3.82351 0,-3.82351 0,-3.82351 2.53729,0 2.53729,0 2.53729,0 0,-4.07834 0,-4.07834 0,-4.07834 -2.53729,0 -2.53729,0 -2.53729,0 z"
       id="path28"
       inkscape:connector-curvature="0"
       style="fill:#ffffff;fill-rule:evenodd" />
  </g>
</svg>
